<svg fill="#6563ff" xmlns="http://www.w3.org/2000/svg" viewBox="0 0 128 128"><path fill="#6563ff" d="M64 0C28.7 0 0 28.7 0 64s28.7 64 64 64 64-28.7 64-64S99.3 0 64 0zm30.5 99.4c-1.1 3.2-4.3 5.2-7.5 4.1 -7.4-2.4-14.2-5.2-20.5-8.4 -3.6-2.1-8.2-.1-10.1 3.5 -1.4 2.7-1.3 6.3 1.1 8.1 3.7 2.3 7.5 4.4 11.3 6.6 3.6 2.1 8.3.1 10.1-3.5 1.4-2.7 1.3-6.3-1.1-8.1 -3.8-2.2-7.5-4.3-11.3-6.5 -2.6-1.5-5.9-.6-7.3 1.9 -1.4 2.6-1.3 5.9 1.1 7.6 4.5 2.6 9 5.3 13.6 7.8 2.9 1.6 6.6.5 8.1-2.4 1.4-2.6 1.3-6-1.1-7.6zm0-21.8c-1.1 3.2-4.3 5.2-7.5 4.1 -7.4-2.4-14.2-5.2-20.5-8.4 -3.6-2.1-8.2-.1-10.1 3.5 -1.4 2.7-1.3 6.3 1.1 8.1 3.7 2.3 7.5 4.4 11.3 6.6 3.6 2.1 8.3.1 10.1-3.5 1.4-2.7 1.3-6.3-1.1-8.1 -3.8-2.2-7.5-4.3-11.3-6.5 -2.6-1.5-5.9-.6-7.3 1.9 -1.4 2.6-1.3 5.9 1.1 7.6 4.5 2.6 9 5.3 13.6 7.8 2.9 1.6 6.6.5 8.1-2.4 1.4-2.6 1.3-6-1.1-7.6zm0-21.7c-1.1 3.2-4.3 5.2-7.5 4.1 -7.4-2.4-14.2-5.2-20.5-8.4 -3.6-2.1-8.2-.1-10.1 3.5 -1.4 2.7-1.3 6.3 1.1 8.1 3.7 2.3 7.5 4.4 11.3 6.6 3.6 2.1 8.3.1 10.1-3.5 1.4-2.7 1.3-6.3-1.1-8.1 -3.8-2.2-7.5-4.3-11.3-6.5 -2.6-1.5-5.9-.6-7.3 1.9 -1.4 2.6-1.3 5.9 1.1 7.6 4.5 2.6 9 5.3 13.6 7.8 2.9 1.6 6.6.5 8.1-2.4 1.4-2.6 1.3-6-1.1-7.6zm0-21.7c-1.1 3.2-4.3 5.2-7.5 4.1 -7.4-2.4-14.2-5.2-20.5-8.4 -3.6-2.1-8.2-.1-10.1 3.5 -1.4 2.7-1.3 6.3 1.1 8.1 3.7 2.3 7.5 4.4 11.3 6.6 3.6 2.1 8.3.1 10.1-3.5 1.4-2.7 1.3-6.3-1.1-8.1 -3.8-2.2-7.5-4.3-11.3-6.5 -2.6-1.5-5.9-.6-7.3 1.9 -1.4 2.6-1.3 5.9 1.1 7.6 4.5 2.6 9 5.3 13.6 7.8 2.9 1.6 6.6.5 8.1-2.4 1.4-2.6 1.3-6-1.1-7.6z"/></svg>
